<?xml version="1.0" encoding="UTF-8" standalone="no"?>
<svg
   xmlns:dc="http://purl.org/dc/elements/1.1/"
   xmlns:cc="http://creativecommons.org/ns#"
   xmlns:rdf="http://www.w3.org/1999/02/22-rdf-syntax-ns#"
   xmlns:svg="http://www.w3.org/2000/svg"
   xmlns="http://www.w3.org/2000/svg"
   viewBox="0 0 1122.52 793.70667"
   height="793.70667"
   width="1122.52"
   xml:space="preserve"
   id="svg2"
   version="1.1"><metadata
     id="metadata8"><rdf:RDF><cc:Work
         rdf:about=""><dc:format>image/svg+xml</dc:format><dc:type
           rdf:resource="http://purl.org/dc/dcmitype/StillImage" /></cc:Work></rdf:RDF></metadata><defs
     id="defs6"><clipPath
       id="clipPath18"
       clipPathUnits="userSpaceOnUse"><path
         id="path16"
         d="M 0,595.28 H 841.89 V 0 H 0 Z" /></clipPath></defs><g
     transform="matrix(1.3333333,0,0,-1.3333333,0,793.70667)"
     id="g10"><g
       id="g12"><g
         clip-path="url(#clipPath18)"
         id="g14"><g
           transform="translate(549.7588,320.3467)"
           id="g20"><path
             id="path22"
             style="fill:#009c3d;fill-opacity:1;fill-rule:nonzero;stroke:none"
             d="m 0,0 c -7.109,7.108 -16.44,11.023 -26.282,11.023 -7.194,0 -14.423,-2.674 -18.4,-5.33 C -52.9,0.221 -59.664,-5.729 -71.834,-21.451 v -11.3 c 10.328,13.447 20.097,24.048 27.514,29.88 4.883,3.915 11.798,6.34 18.038,6.34 16.122,0 29.743,-13.619 29.743,-29.742 v -6.809 c 0,-7.961 -3.133,-15.452 -8.831,-21.08 -5.647,-5.585 -13.073,-8.652 -20.912,-8.652 -13.241,0 -24.903,9.087 -28.071,21.504 l -5.324,-6.454 c 3.878,-13.011 17.915,-22.609 33.395,-22.609 9.842,0 19.173,3.919 26.282,11.013 7.104,7.114 11.013,16.44 11.013,26.278 v 6.809 C 11.013,-16.441 7.104,-7.104 0,0 m -161.817,3.469 c 5.132,0 9.569,-1.102 13.578,-3.37 1.88,2.351 3.788,4.263 5.201,5.674 -4.239,3.243 -11.415,5.25 -18.779,5.25 -10.49,0 -20.014,-3.781 -26.82,-10.654 -6.754,-6.819 -10.475,-16.28 -10.475,-26.642 v -44.1 h 7.546 v 44.1 c 0,17.509 12.238,29.742 29.749,29.742 m 71.789,-73.842 v 44.1 c 0,13.557 -10.622,24.184 -24.184,24.184 -6.316,0 -12.339,-2.558 -16.985,-7.205 -4.632,-4.633 -7.194,-10.669 -7.194,-16.979 v -6.809 c 0,-13.095 11.079,-24.179 24.179,-24.179 3.595,0 8.486,0.885 11.475,3.346 v 7.977 c -2.938,-2.36 -7.208,-3.769 -11.475,-3.769 -9.315,0 -16.625,7.307 -16.625,16.625 v 6.809 c 0,9.321 7.31,16.621 16.625,16.621 9.334,0 16.63,-7.3 16.63,-16.621 v -44.1 z m -202.36,48.476 v -2.441 c 0,-13.098 4.971,-25.317 13.995,-34.403 9.003,-9.074 21.08,-14.058 33.989,-14.058 10.378,0 19.571,2.343 27.332,6.963 6.395,3.814 9.231,7.668 9.484,8.02 v 40.666 h -38.651 v -7.56 h 31.09 v -30.758 l -0.03,-0.03 c -3.642,-3.644 -12.279,-9.749 -29.225,-9.749 -11.043,0 -21.265,4.21 -28.793,11.873 -7.511,7.62 -11.634,17.935 -11.634,29.036 v 2.441 c 0,10.482 4.726,20.941 12.963,28.674 8.41,7.887 19.37,12.234 30.865,12.234 10.717,0 18.188,-1.624 24.176,-5.261 v 8.484 c -6.238,2.657 -13.702,3.847 -24.176,3.847 -27.851,0 -51.385,-21.974 -51.385,-47.978 m 130.571,12.245 c 2.869,0 5.296,-0.477 7.229,-1.415 0.942,2.344 1.911,4.277 3.314,6.624 -2.053,1.474 -6.946,2.354 -10.543,2.354 -13.779,0 -24.177,-10.397 -24.177,-24.184 v -44.1 h 7.549 v 44.1 c 0,9.789 6.837,16.621 16.628,16.621 m -55.01,8.873 v 8.928 c -6.825,3.668 -14.286,5.305 -24.176,5.305 -10.09,0 -19.658,-3.706 -26.943,-10.414 -7.299,-6.731 -11.323,-15.585 -11.323,-24.937 v -2.441 c 0,-19.488 15.641,-35.347 34.865,-35.347 15.638,0 22.058,5.115 23.693,6.73 v 22.684 h -25.528 v -7.551 h 18.464 v -11.366 l -0.068,-0.016 c -2.376,-0.947 -7.311,-2.927 -16.561,-2.927 -7.333,0 -14.197,2.858 -19.329,8.052 -5.148,5.207 -7.981,12.219 -7.981,19.741 v 2.441 c 0,15.061 14.062,27.79 30.711,27.79 11.516,0 18.325,-1.873 24.176,-6.672 m 178.332,-14.237 c 3.402,3.404 7.86,5.364 12.213,5.364 9.322,0 16.629,-7.3 16.629,-16.621 v -6.809 c 0,-9.318 -7.307,-16.625 -16.629,-16.625 -4.51,0 -8.87,2.476 -12.286,6.966 -3.028,3.966 -4.989,9.325 -5.289,14.142 l -6.123,-7.465 c 1.205,-5.72 4.193,-11.191 8.408,-15.037 4.362,-3.964 9.791,-6.16 15.29,-6.16 13.342,0 24.188,10.844 24.188,24.179 v 6.809 c 0,6.31 -2.565,12.346 -7.199,16.979 -4.644,4.647 -10.673,7.205 -16.989,7.205 -3.99,0 -10.339,-1.437 -17.904,-8.24 l -0.027,-0.025 c -2.025,-2.025 -6.781,-6.783 -9.669,-10.167 -4.869,-5.314 -11.93,-13.312 -17.952,-21.336 V -53.65 c 6.68,8.586 10.527,13.392 16.81,20.644 5.621,6.566 12.585,14.538 16.529,17.99 m -113.009,-18.066 c 0,-9.838 3.911,-19.164 11.017,-26.278 7.108,-7.094 16.437,-11.013 26.275,-11.013 4.166,0 8.449,0.894 11.475,2.386 v 7.541 c -3.534,-1.482 -7.81,-2.368 -11.475,-2.368 -16.118,0 -29.744,13.614 -29.744,29.732 v 6.809 c 0,16.123 13.626,29.742 29.744,29.742 8.014,0 15.509,-3.071 21.09,-8.654 5.586,-5.584 8.652,-13.08 8.652,-21.088 v -44.1 h 7.554 v 45.552 c -0.466,9.627 -4.573,18.633 -11.566,25.365 -6.998,6.758 -16.141,10.479 -25.73,10.479 -9.836,0 -19.167,-3.915 -26.275,-11.023 -7.106,-7.104 -11.017,-16.441 -11.017,-26.273 z m 87.447,29.251 c 2.311,2.773 4.704,5.598 7.547,7.974 v 39.912 h -7.547 z m 13.113,11.073 v 36.813 h 7.548 V 12.421 c -2.056,-1.033 -4.922,-3.002 -7.548,-5.179" /></g></g></g></g></svg>